# xmcd
#
# Track frame offsets:
# 150
# 11965
# 22110
# 34758
# 46556
# 57608
# 70918
# 83038
# 94485
# 108562
# 121577
# 133769
# 150209
# 163617
# 175034
# 188639
# 198344
# 213007
#
# Disc length: 3002 seconds
#
#
# Revision: 0
# Processed by: cddbd v1.5.1PL2 Copyright (c) Steve Scherf et al.
# Submitted via: FreeRIP 2.53 
#
DISCID=e90bb812
DTITLE=Various Artist - Let's Go Country
DYEAR=1900
DGENRE=Country
TTITLE0=Dave Dudley - Six Days on the Road
TTITLE1=Bobby Bare - Help Me Make It Through the Night
TTITLE2=George Kent - Hardscuffle Road
TTITLE3=Roy Baham - Lindas Red Dress
TTITLE4=Dave Dudley - Get Me Back To Tennessee
TTITLE5=Linda Manning - If Only For A Moment
TTITLE6=Ferlin Husky - Out Of the Clear Blue Sky
TTITLE7=Billy Grammer - Mabel, You Have Been A Friend To Me
TTITLE8=Barbara Perry - Why Can't Women Have A Good Beer Dinking Song
TTITLE9=Ronnie Rogers - Diane (Do The Wrong Again With Me)
TTITLE10=David Price - I Need A Friend
TTITLE11=Bobby Bare - Me And Robby McGee
TTITLE12=Dave Dudley - Counterfeit Cowboy
TTITLE13=Rick Key - The Great Barnyard Disaster
TTITLE14=Rick Johnson - If You Are Going To Tulsa
TTITLE15=George Kent - Let's Just Pretend
TTITLE16=Bobby Lord - Freedom
TTITLE17=I Could Sing All Night
EXTD=
EXTT0=
EXTT1=
EXTT2=
EXTT3=
EXTT4=
EXTT5=
EXTT6=
EXTT7=
EXTT8=
EXTT9=
EXTT10=
EXTT11=
EXTT12=
EXTT13=
EXTT14=
EXTT15=
EXTT16=
EXTT17=
PLAYORDER=
